<svg width="542" height="158" viewBox="0 0 542 158" fill="none" xmlns="http://www.w3.org/2000/svg">
<path d="M18.8 3.99999H134.4V32.4H30.2L45.4 25.2L37 81.6H27.4C30.3333 76.6667 34.3333 72.1333 39.4 68C44.6 63.8667 50.9333 60.5333 58.4 58C65.8667 55.4667 74.5333 54.2 84.4 54.2C97.2 54.2 108.2 56.3333 117.4 60.6C126.6 64.8667 133.667 70.7333 138.6 78.2C143.667 85.6667 146.2 94.2667 146.2 104C146.2 114.267 143.333 123.4 137.6 131.4C131.867 139.4 123.6 145.733 112.8 150.4C102.133 154.933 89.3333 157.2 74.4 157.2C59.7333 157.2 47 155.067 36.2 150.8C25.4 146.533 16.9333 140.733 10.8 133.4C4.66667 125.933 1.06667 117.667 2.38419e-07 108.6H37.6C39.0667 114.467 42.9333 119.133 49.2 122.6C55.6 126.067 64 127.8 74.4 127.8C81.4667 127.8 87.5333 126.867 92.6 125C97.6667 123 101.6 120.2 104.4 116.6C107.2 113 108.6 108.733 108.6 103.8C108.6 99.1333 107.333 95 104.8 91.4C102.4 87.8 98.7333 85 93.8 83C89 81 83 80 75.8 80C69.8 80 64.4 80.6667 59.6 82C54.9333 83.3333 50.8 85.0667 47.2 87.2C43.7333 89.3333 40.8667 91.5333 38.6 93.8H6.2L18.8 3.99999ZM269.566 157.2C252.632 157.2 237.966 153.933 225.566 147.4C213.166 140.867 203.566 131.8 196.766 120.2C189.966 108.467 186.566 94.7333 186.566 79C186.566 63.4 189.966 49.7333 196.766 38C203.566 26.2667 213.166 17.1333 225.566 10.6C237.966 4.06666 252.632 0.799994 269.566 0.799994C286.366 0.799994 300.966 4.06666 313.366 10.6C325.766 17.1333 335.366 26.2667 342.166 38C348.966 49.6 352.366 63.2667 352.366 79C352.366 94.6 348.966 108.267 342.166 120C335.366 131.733 325.766 140.867 313.366 147.4C300.966 153.933 286.366 157.2 269.566 157.2ZM269.566 126.4C283.832 126.4 294.899 122.267 302.766 114C310.766 105.733 314.766 94.0667 314.766 79C314.766 63.9333 310.766 52.2667 302.766 44C294.899 35.7333 283.832 31.6 269.566 31.6C255.299 31.6 244.166 35.7333 236.166 44C228.166 52.2667 224.166 63.9333 224.166 79C224.166 94.0667 228.166 105.733 236.166 114C244.166 122.267 255.299 126.4 269.566 126.4ZM392.364 57.4C393.164 45.8 396.964 35.8 403.764 27.4C410.564 18.8667 419.564 12.3333 430.764 7.8C442.097 3.13333 454.897 0.799994 469.164 0.799994C482.764 0.799994 494.631 2.86666 504.764 7C515.031 11.1333 522.964 16.9333 528.564 24.4C534.297 31.8667 537.164 40.4667 537.164 50.2C537.164 57.8 535.164 64.8667 531.164 71.4C527.164 77.8 520.831 84.2 512.164 90.6C503.497 97 492.097 103.8 477.964 111L434.764 133.8L432.564 123.8H541.364V154H394.964V127.6L459.364 90.6C469.631 84.7333 477.631 79.7333 483.364 75.6C489.231 71.3333 493.364 67.4 495.764 63.8C498.164 60.2 499.364 56.3333 499.364 52.2C499.364 47.9333 498.164 44.1333 495.764 40.8C493.497 37.4667 490.031 34.8667 485.364 33C480.697 31.1333 474.831 30.2 467.764 30.2C459.364 30.2 452.431 31.4667 446.964 34C441.497 36.4 437.431 39.6667 434.764 43.8C432.097 47.9333 430.497 52.4667 429.964 57.4H392.364Z" fill="#FF323A"/>
</svg>
