<svg width="116" height="22" viewBox="0 0 116 22" fill="none" xmlns="http://www.w3.org/2000/svg">
<path fill-rule="evenodd" clip-rule="evenodd" d="M12.7467 1.22461L10.4238 3.54744L15.9853 9.10896L21.5469 3.54744L19.224 1.22461L15.9853 4.46329L12.7467 1.22461Z" fill="#FF323A"/>
<path fill-rule="evenodd" clip-rule="evenodd" d="M5.40261 0L0 5.40261L16 21.4026L32 5.40261L26.5974 0L16 10.5974L5.40261 0Z" fill="#FF323A"/>
<path d="M49.3838 17.2013L46.1678 12.8813H44.4318V17.2013H41.1118V5.20126H48.2398C49.1465 5.20126 49.9438 5.36126 50.6318 5.68126C51.3251 6.00126 51.8611 6.45459 52.2398 7.04126C52.6238 7.62259 52.8158 8.2946 52.8158 9.05726C52.8158 9.65993 52.6931 10.2093 52.4478 10.7053C52.2025 11.1959 51.8505 11.6119 51.3918 11.9533C50.9385 12.2946 50.4025 12.5426 49.7838 12.6973L53.2318 17.2013H49.3838ZM44.4318 7.66526V10.4493H47.7838C48.3065 10.4493 48.7171 10.3266 49.0158 10.0813C49.3145 9.83593 49.4638 9.49459 49.4638 9.05726C49.4638 8.61993 49.3145 8.2786 49.0158 8.03326C48.7225 7.78793 48.3118 7.66526 47.7838 7.66526H44.4318ZM61.4416 5.20126C62.4389 5.20126 63.3029 5.37193 64.0336 5.71326C64.7642 6.05459 65.3242 6.53726 65.7136 7.16126C66.1029 7.78526 66.2976 8.5106 66.2976 9.33726C66.2976 10.1639 66.1029 10.8893 65.7136 11.5133C65.3242 12.1373 64.7642 12.6199 64.0336 12.9613C63.3029 13.3026 62.4389 13.4733 61.4416 13.4733H58.0256V17.2013H54.7056V5.20126H61.4416ZM61.2496 10.8173C61.7829 10.8173 62.1989 10.6866 62.4976 10.4253C62.7962 10.1639 62.9456 9.80126 62.9456 9.33726C62.9456 8.87326 62.7962 8.51059 62.4976 8.24926C62.1989 7.98793 61.7829 7.85726 61.2496 7.85726H58.0256V10.8173H61.2496ZM80.5458 17.2013H77.0098L76.0098 14.8893H69.8098L68.8098 17.2013H65.2658L70.7298 5.20126H75.0898L80.5458 17.2013ZM72.9058 7.72926L70.9618 12.2253H74.8578L72.9058 7.72926ZM88.9758 5.20126H92.6478L87.0478 12.3373V17.2013H83.7278V12.3773L78.1038 5.20126H81.7758L85.3758 9.79326L88.9758 5.20126ZM92.8998 17.3693C92.5585 17.3693 92.2465 17.2893 91.9638 17.1293C91.6865 16.9639 91.4651 16.7426 91.2998 16.4653C91.1398 16.1826 91.0598 15.8706 91.0598 15.5293C91.0598 15.1879 91.1398 14.8786 91.2998 14.6013C91.4651 14.3186 91.6865 14.0973 91.9638 13.9373C92.2465 13.7719 92.5585 13.6893 92.8998 13.6893C93.2411 13.6893 93.5505 13.7719 93.8278 13.9373C94.1105 14.0973 94.3318 14.3186 94.4918 14.6013C94.6571 14.8786 94.7398 15.1879 94.7398 15.5293C94.7398 15.8706 94.6571 16.1826 94.4918 16.4653C94.3318 16.7426 94.1105 16.9639 93.8278 17.1293C93.5505 17.2893 93.2411 17.3693 92.8998 17.3693ZM96.4087 17.2013V5.20126H99.7287V17.2013H96.4087ZM108.564 17.4653C107.156 17.4653 105.913 17.2039 104.836 16.6813C103.758 16.1586 102.921 15.4253 102.324 14.4813C101.732 13.5319 101.436 12.4386 101.436 11.2013C101.436 9.96393 101.732 8.87326 102.324 7.92926C102.921 6.97993 103.758 6.24393 104.836 5.72126C105.913 5.19859 107.156 4.93726 108.564 4.93726C109.972 4.93726 111.214 5.19859 112.292 5.72126C113.369 6.24393 114.204 6.97993 114.796 7.92926C115.393 8.87326 115.692 9.96393 115.692 11.2013C115.692 12.4386 115.393 13.5319 114.796 14.4813C114.204 15.4253 113.369 16.1586 112.292 16.6813C111.214 17.2039 109.972 17.4653 108.564 17.4653ZM108.564 14.4973C109.332 14.4973 109.998 14.3639 110.564 14.0973C111.134 13.8306 111.572 13.4493 111.876 12.9533C112.185 12.4573 112.34 11.8733 112.34 11.2013C112.34 10.5293 112.185 9.94526 111.876 9.44926C111.572 8.95326 111.134 8.57193 110.564 8.30526C109.998 8.03859 109.332 7.90526 108.564 7.90526C107.796 7.90526 107.126 8.03859 106.556 8.30526C105.99 8.57193 105.553 8.95326 105.244 9.44926C104.94 9.94526 104.788 10.5293 104.788 11.2013C104.788 11.8733 104.94 12.4573 105.244 12.9533C105.553 13.4493 105.99 13.8306 106.556 14.0973C107.126 14.3639 107.796 14.4973 108.564 14.4973Z" fill="white"/>
</svg>
